<svg height="36" viewBox="0 0 92 36" width="92" xmlns="http://www.w3.org/2000/svg"><g fill="none" fill-rule="evenodd"><path d="m0 0h92v36h-92z"/><path d="m13.7080912 21.9696631c6.8760708 4.0404471 15.3780539 6.4711854 24.1603638 6.4711854 5.9229489 0 12.4385987-1.237616 18.4296322-3.8058643.905062-.3882738 1.6619506.5985839.7769134 1.2618796-5.3462755 3.9797799-13.0953766 6.1031362-19.7672046 6.1031362-9.3549841 0-17.7768684-3.4944387-24.1483495-9.3063702-.5005867-.4570303-.0520628-1.0798796.5486447-.7239667zm47.8721981-.3963593c.5846848.732054-.1521781 5.8078898-3.0235505 8.2305362-.4405172.3720919-.8610106.1739146-.6647792-.3195147.6447563-1.6258853 2.0904553-5.2699676 1.4056506-6.1557107-.6808019-.8816985-4.5173049-.4165829-6.239325-.2103137-.5246181.0647127-.6047087-.3963602-.1321571-.7280104 3.0555877-2.1718899 8.0694754-1.5449933 8.6541612-.8169867zm-8.4018632-14.51567038v-2.11122285c0-.31951449.2402819-.53387221.528621-.53387221h9.3589842c.3003543 0 .5406362.21840274.5406362.53387221v1.80788674c-.004002.30333611-.256301.699696-.7048295 1.32659162l-4.8496916 6.99292227c1.8021171-.0444863 3.7043505.226491 5.3382687 1.1567241.3684314.2103128.4685495.5176938.4965819.8210331v2.2527809c0 .3073801-.3363952.6673366-.6888086.481292-2.879381-1.5247734-6.7038707-1.6905971-9.887608.0161791-.32438.1779583-.6647791-.1779564-.6647791-.4853393v-2.1395336c0-.343781.004002-.9302349.3444011-1.4519733l5.6185973-8.13751218h-4.8897393c-.3003524 0-.5406343-.21435596-.5406343-.5298286m-34.1400784 13.17290078h-2.8473421c-.2723181-.02022-.4885724-.2264891-.5085971-.4893839v-14.75833648c0-.29524775.2442876-.52982997.5486438-.52982997h2.6551163c.2763276.01212528.4965829.22649071.5166086.49342672v1.92922375h.0520609c.6928125-1.86451182 1.9943392-2.73407698 3.7483992-2.73407698 1.7820916 0 2.8953992.86956516 3.6963392 2.73407698.6888086-1.86451182 2.2546459-2.73407698 3.9326173-2.73407698 1.193401 0 2.4989334.49747211 3.2958696 1.6137512.9010572 1.24165796.7168401 3.04549978.7168401 4.62689706l-.004002 9.3144584c0 .2952465-.2442876.5338702-.5486438.5338702h-2.8433401c-.2843315-.02022-.5125991-.2507555-.5125991-.5338702v-7.8220428c0-.6228507.056062-2.17593475-.0800952-2.76643184-.2122486-.99089708-.8489953-1.26996962-1.6739667-1.26996962-.6888086 0-1.4096534.46511657-1.7019972 1.20930427-.2923438.74418604-.2643105 1.98988599-.2643105 2.82709719v7.8220428c0 .2952465-.2442867.5338702-.5486448.5338702h-2.8433354c-.288339-.02022-.5126028-.2507555-.5126028-.5338702l-.004002-7.8220428c0-1.6461062.2683115-4.06875673-1.7540591-4.06875673-2.0464048 0-1.9663105 2.36198063-1.9663105 4.06875673v7.8220428c0 .2952465-.2442876.5338702-.5486439.5338702m52.6257764-16.08897686c4.2249602 0 6.5116423 3.66430713 6.5116423 8.32355936 0 4.5015153-2.5269686 8.0727985-6.5116423 8.0727985-4.1488715 0-6.4075239-3.6643069-6.4075239-8.2305341 0-4.59454031 2.2866848-8.16582376 6.4075239-8.16582376m.0240268 3.01314627c-2.0984621 0-2.2306359 2.88776249-2.2306359 4.68756239 0 1.8038419-.0280157 5.6541944 2.2066091 5.6541944 2.2065897 0 2.3107134-3.1061649 2.3107134-4.99899 0-1.2456999-.0520618-2.7340721-.4245008-3.91506472-.3203762-1.02729726-.9571211-1.42770207-1.8621858-1.42770207m11.966048 13.07583059h-2.8353277c-.2843352-.02022-.5126029-.2507555-.5126029-.5338702l-.004002-14.7623868c.0240286-.27098092.2603076-.48129335.5486448-.48129335h2.6391c.2482887.01212528.4525287.18200217.5085972.41253808v2.25682334h.0520582c.796938-2.01819908 1.9142458-2.98078793 3.8805544-2.98078793 1.2775001 0 2.522963.46511693 3.323903 1.73913015.7448734 1.18099085.7448734 3.16683652.7448734 4.59453861v9.2901943c-.0320362.2588446-.2683152.4651138-.5486411.4651138h-2.8553534c-.2603075-.02022-.4765618-.2143555-.5045915-.4651138v-8.0161779c0-1.6137511.1842153-3.97573479-1.7820942-3.97573479-.6928115 0-1.3295601.46916325-1.6459315 1.18099104-.4004687.90192333-.4525306 1.79979985-.4525306 2.79474375v7.9474215c-.004002.2952465-.2522952.5338702-.5566515.5338702m-37.9365394-7.0495432c0 1.1203226.0280324 2.0545993-.5326257 3.0495443-.4525305.8089004-1.1733763 1.3063715-1.9703106 1.3063715-1.0932839 0-1.7340363-.8412559-1.7340363-2.0829136 0-2.4509595 2.1745516-2.8958527 4.2369726-2.8958527zm2.8713715 7.0090986c-.1882191.1698683-.4605418.182001-.6727895.0687574-.9451114-.7927194-1.1173124-1.1607668-1.6339182-1.9170862-1.5618343 1.6097051-2.6711381 2.090998-4.6935115 2.090998-2.3988163 0-4.2610003-1.492417-4.2610003-4.4812908 0-2.3336719 1.2494686-3.9231561 3.0355649-4.6996975 1.5458134-.6875656 3.7043441-.808898 5.3542831-.9989887v-.37209299c0-.68352078.0520619-1.49241875-.3484086-2.08291111-.3444038-.52983017-1.0091866-.74823263-1.5978762-.74823263-1.0852753 0-2.0504059.56218377-2.2866849 1.72699643-.0480562.25884905-.2362753.51365179-.4965838.52578516l-2.7592373-.29929426c-.2322742-.05257551-.4925781-.24266928-.4244981-.60262591.6327429-3.38119247 3.6602982-4.40040649 6.3674736-4.40040649 1.3856277 0 3.1957516.37209381 4.2890354 1.43174913 1.3856249 1.3063698 1.2534715 3.04954461 1.2534715 4.94641147v4.4812932c0 1.346817.5526486 1.937309 1.0732591 2.6653203.1802142.2588446.2202609.5702701-.0120253.7644057-.580681.4893857-1.6138953 1.3993951-2.182562 1.9089999l-.004002-.0081021m-40.19917882-7.0090866c0 1.1203226.02803009 2.0545993-.53262536 3.0495443-.45253373.8089004-1.16937455 1.3063715-1.97031496 1.3063715-1.09328365 0-1.73002991-.8412559-1.73002991-2.0829136 0-2.4509595 2.17455183-2.8958527 4.23297023-2.8958527zm2.87136942 7.0090986c-.1882201.1698683-.4605428.182001-.6727914.0687574-.94510682-.7927194-1.11330674-1.1607668-1.63391745-1.9170862-1.56183376 1.6097051-2.66712838 2.090998-4.6935098 2.090998-2.39481234 0-4.26100015-1.492417-4.26100015-4.4812908 0-2.3336719 1.25347112-3.9231561 3.03556236-4.6996975 1.54581427-.6875656 3.70434835-.808898 5.35428702-.9989887v-.37209299c0-.68352078.05206132-1.49241875-.34440449-2.08291111-.34841136-.52983017-1.01318937-.74823263-1.59787743-.74823263-1.08527165 0-2.05441142.56218377-2.29068831 1.72699643-.04805749.25884905-.23627826.51365179-.49257784.52578516l-2.76324353-.29929426c-.23227314-.05257551-.48857431-.24266928-.42449902-.60262591.63674779-3.38119247 3.66029604-4.40040649 6.36747607-4.40040649 1.38562405 0 3.19574867.37209381 4.28903257 1.43174913 1.3856276 1.3063698 1.2534705 3.04954461 1.2534705 4.94641147v4.4812932c0 1.346817.5526514 1.937309 1.0732628 2.6653203.1842153.2588446.224262.5702701-.0080132.7644057-.580681.4893857-1.6138925 1.3993951-2.1825629 1.9089999l-.008004-.0081021" fill="#161637"/></g></svg>