<svg height="51" viewBox="0 0 85 51" width="85" xmlns="http://www.w3.org/2000/svg"><path d="m75.3485925 23.3394532c1.4097561.3926087 2.5657706 1.1705556 3.7726788 1.9703141.1679493.1090579.342442.2181159.5096642.3271739.0533173.0339291.0969405.0613956.1330238.0845536l.0487395.0317749c.0145411.0072705.0290821.0072705.0356256.014541.0945169.0363527.1817633.0654348.2762802.0945169.3133599.0872464.6325363.1526812.9604372.1963044 2.5512295.3199034 5.0304807-.6470773 6.8844662-2.3920048.2487431-.2290218.4857965-.318881.6965482-.3085432l.0886692.0104514c.342442 0 .6259927.2035749.6768865.7052415.6179951 5.7073672-1.6438672 11.3347585-6.1007029 14.9627536-3.4825846 2.8282368-8.1858913 4.2532609-12.6361836 3.2499276-.9622427-.2186007-1.8692821-.5784475-2.699748-1.0527943l-.2126961-.1249947c-3.0385206-.0856132-6.0731987.291964-8.9916183 1.1520959-.2104015-.2263994-.4234271-.4507742-.6389623-.6729251.8438832.8705906 1.6503728 1.7779858 2.4160469 2.7197532 6.0483551 7.4450242 9.4364227 16.911256 9.4077096 26.501087 0 .5809154-.4293304 1.3377777-1.1047627 1.3236437-3.570558-.0585713-7.1476594-.1167355-10.7240338-.1748998-.3860653-.0072705-.7859445-.2980918-.7714034-.7270531.1381401-4.8203623-.8870049-9.5752899-3.0390821-13.8939855-1.7383613-3.4966275-4.1895429-6.5709214-7.1306535-9.0647099l.4468953.3867276c-1.35682 1.3346907-2.5400939 2.8399753-3.4880061 4.5118951-3.0528961 5.3874637-4.4997319 11.698285-5.6484758 17.718285-.094517.5089372-.5314759 1.0542271-1.0905798 1.0614976-3.5407487.0654348-7.0814975.123599-10.6222463.1819959-.5307488.0070379-.8579227-.4873582-.7634058-.9817544 1.0833091-5.5474154 2.4138164-11.0730193 4.3477777-16.3877777 1.2505314-3.4389614 2.7700725-6.8488406 4.8414469-9.8733817.5358803-.7804242 1.1168454-1.5307669 1.7346947-2.252054-.6521307-.2037224-1.3133836-.383678-1.9816019-.5397573-2.6392029-.6179952-5.2711353-1.0178744-7.975773-1.0760387-1.9768575-.0436232-3.9551691-.0436232-5.9327536-.0508937-2.0212077-.0072705-4.0569565.2835507-6.0636232.5162077-2.7409903.3199034-5.48852415.6398068-8.24405555.8579227-.80048551.0581643-.95316667-1.0106038-.55256039-1.5122705 1.1698285-1.4468358 2.5228744-2.7409903 3.86719564-4.0278744 2.3338406-2.2320531 4.7411135-4.391401 7.1542029-6.5434783.1454106-.2181159.3562561-.3926087.6405338-.4435024 5.9109421-1.1487439 12.3090097-1.2287198 18.2417633-.1381401 4.2147837.7712702 8.2688367 2.2370205 12.0098096 4.2794388l-.0863969-.0470365c4.8665013-2.6142984 10.2286881-4.1993359 15.7038557-4.6973629l.037923-.003432-.0126147.029192c1.8833718-4.4291306 6.7462708-7.2506847 11.5790653-5.9006301zm-36.5102215 19.950764.5819697.2330092-.1837507.2105442c-1.0058666 1.1760049-1.9233291 2.4321611-2.73659 3.7662294-1.8619831 3.0608937-3.3657971 6.1192029-4.5 9.5-1.3221182 3.9462207-2.7730203 7.9683734-3.6860661 12.0463639l-.2166703 1.0206493 8.7755314-.1454107c.7415942-3.7370531 1.6823616-7.4617604 2.9321659-11.067944.9240846-2.6464734 1.5827118-5.1424067 3.0731708-7.5198705.8762264-1.3999943 2.0722442-2.6855286 3.3555708-3.8501581l.4085679.3223787c-2.3461448-1.8910653-4.9829055-3.4214935-7.8038994-4.5157914zm-4.9607442-11.8441941c-4.2387198-.5889131-8.7399058-.6543479-13.0513309-.109058.0654348.0945169.1170556.1817633.1752198.2762802.4936691.8288406.8797343 1.7231159 1.1778261 2.6392029.479128 1.4759179.8281135 3.1481401.5816425 4.7113043h.2610121c2.4000024.0290822 4.7920073-.0581642 7.1840121.1672222 2.6392029.2544686 5.5387656.6469573 8.0623671 1.4467158 4.1943695 1.3305072 7.8593696 3.7008205 11.0947561 6.6890089 3.4045258 3.1414309 6.1665968 6.4918505 7.8564634 10.7256252 1.4389567 3.6051478 2.0631117 7.9904217 2.0467274 11.9293506l4.4032156.0689792 4.4086685.0684339c-.1388672-4.761471-1.3791364-9.1755954-3.1756847-13.603349-3.4455048-8.4919807-9.9219742-15.5115035-17.9268293-19.9756098-4.1507463-2.32657-8.3794909-4.3797586-13.0980658-5.0341064zm29.1757084.47247-.0076441.0720438-.0456911.0094631c-2.1502671.2942456-4.350052.3873999-6.5 1-2.0818505.5899829-4.1276864 1.3583416-6.0935044 2.2988389l-.0405501-.0254027c2.5316708 1.5942806 4.893916 3.46078 7.0340811 5.5587805l-.0831468-.0812833c2.6020314-.9080523 5.32526-1.4636072 8.0859862-1.6387577-1.707748-1.9505907-2.6423546-4.5377672-2.3495308-7.1936826zm2.0721631-1.2866969c-1.4177536 4.7985508 2.7780701 9.3353624 7.4232126 9.8297585 3.9922488.4289614 7.8310894-.9524396 10.7029493-3.7007005 2.9372947-2.8136956 4.4350241-6.5798309 4.3914009-10.5568116-1.752198 1.2287198-3.9619017 2.3032279-6.1430611 2.2959574-.793215-.0072705-1.7431377-.2455314-2.5-.5-1.1414734-.3780676-2.460314-1.4328986-3.5-2-4.3121522-2.3629227-8.9996442-.0286144-10.3745017 4.6317962zm-46.8867845 1.0832365c-.0079976.0145411-.0218116.0218116-.0290821.0363527-2.3338406 2.0648309-4.6538672 4.1514734-6.9070049 6.3108212-.7059686.6688889-1.40393957 1.3377778-2.07937194 2.0357488 3.89700484-.3926087 7.78601204-.9669807 11.69755794-1.0978502.0152681-.109058.0225387-.218116.0290822-.3344445 0-.0363526.0072705-.1599517.0072705-.1817632l-.0072705-.2544686c-.0065435-.1963044-.0218116-.3853382-.0428962-.5816426-.0807029-.8433816-.2690096-1.6067874-.5380193-2.4283574-.2624662-.7779469-.5816425-1.5631643-.9822488-2.2029711-.1817633-.3053623-.3926087-.6034541-.6245386-.8651932-.0443503-.0508937-.0945169-.1017874-.1388672-.1526812-.013814-.014541-.0210845-.0290821-.0290821-.0290821l-.013814-.014541c-.0072706 0-.0152681-.0072706-.0225387-.0145411-.0945169-.0727053-.1883067-.1454106-.2908212-.2035749-.0072706-.0072705-.0210846-.0145411-.0283551-.0218116z" fill="#161637" fill-rule="evenodd" stroke="#151638" stroke-linecap="round" stroke-width=".3" transform="translate(-5 -22)"/></svg>