<svg height="36" viewBox="0 0 124 36" width="124" xmlns="http://www.w3.org/2000/svg"><g fill="none" fill-rule="evenodd"><path d="m0 0h124v36h-124z"/><path d="m7.8554 29.6301015h-4.672444v-11.6480198h-3.182956v-3.7923584h3.182832v-2.6985352c0-3.19776797 1.407772-5.4911881 6.067568-5.4911881.985552 0 2.532824.19865148 2.532824.19865148v3.52141362h-1.625144c-1.655896 0-2.302432.5036968-2.302432 1.8962412v2.573417h3.865576l-.344224 3.7923584h-3.521476zm10.72104-15.7434395c-.068076 0-.138136.0024801-.207452.0042161-4.33256 0-6.314824 3.259025-6.314824 7.885298 0 5.827854 2.571264 8.1603348 6.348676 8.1603348 2.161196 0 3.58112-.9096799 4.44416-2.6072696v2.3024723h4.44416v-15.4403783h-4.44416v2.3745176c-.704692-1.5277067-2.164296-2.6610866-4.27056-2.6791909zm1.130012 3.6485159c1.8197 0 2.911892 1.2692862 2.911892 3.428288l.004216 2.2051306c0 1.4551654-.9021 3.1575912-2.916108 3.1575912-3.09628 0-3.013572-3.3433465-3.013572-4.456886 0-3.7457335 1.649696-4.3341238 3.013572-4.3341238zm9.3794407 4.3771526c0-1.8762769-.0897327-8.0156243 7.9087633-8.0156243 3.210732 0 4.55142 1.0209099 4.55142 1.0209099l-1.07756 3.3422304s-1.338952-.7373169-3.083632-.7373169c-2.234604 0-3.66048 1.2954507-3.66048 3.5747346l.00248 1.6343486c0 2.1901263 1.37578 3.6521119 3.662588 3.6521119 1.589432 0 3.054368-.744261 3.054368-.744261l1.074832 3.2724173s-1.225864 1.0273579-4.501572 1.0273579c-7.615832 0-7.93104-5.5081764-7.93104-8.0269084zm38.5179153-8.0214524c4.332684 0 6.346196 3.259025 6.346196 7.885298 0 5.827854-2.571388 8.1603348-6.3488 8.1603348-2.161196 0-3.758812-.9095559-4.621852-2.6072696v2.3024723l-4.388236-.0017361v-23.16050528l4.659176-.40635512v10.2935441c.672452-1.8008835 2.88238-2.4657831 4.35364-2.4657831zm-1.306216 3.6442998c-1.8197 0-3.0473 1.2692862-3.0473 3.428288l-.0043465 2.2051306c-.0027215 1.4551654.8501505 3.1575912 3.0516465 3.1575912 3.09628 0 3.013572-3.3433465 3.013572-4.456886 0-3.7457335-1.649572-4.3341238-3.013572-4.3341238zm-16.66746-3.6316516c-4.91412 0-7.508448 2.6794389-7.508448 7.4408742v.8846315c0 6.1798962 3.643244 7.770968 7.986716 7.770968 4.221828 0 6.132792-1.1808727 6.132792-1.1808727l-.871844-3.144695s-2.247872.9564287-4.702328.9564287c-2.54448 0-3.63878-.6485313-3.919268-3.0938541h9.865936v-2.5228242c0-5.1649383-2.911644-7.1106564-6.98368-7.1106564zm.11842 3.1490351c1.701032 0 2.803268 1.0431063 2.742756 3.4622646h-5.735c.099448-2.5461365 1.288112-3.4621406 2.992244-3.4621406zm33.491656-3.1701155c-5.046428 0-7.703128 2.8438658-7.703128 7.940231 0 6.9924824 4.579568 8.1180501 7.71156 8.1180501 4.585024 0 7.635424-2.4685112 7.635424-8.054561 0-5.8140897-3.42984-8.0037201-7.643856-8.0037201zm-.063488 3.6653802c2.21898 0 3.098264 1.6607611 3.098264 3.5511741v1.6252965c0 2.2900721-1.230328 3.6146632-3.106696 3.6146632-1.754848 0-2.988152-1.2390297-2.988152-3.6146632v-1.6252965c0-2.5336123 1.46754-3.5511741 2.996584-3.5511741zm16.98924-3.6653802c-5.046428 0-7.703128 2.8438658-7.703128 7.940231 0 6.9924824 4.579568 8.1180501 7.71156 8.1180501 4.5849 0 7.635424-2.4685112 7.635424-8.054561 0-5.8140897-3.429964-8.0037201-7.643856-8.0037201zm-.063488 3.6653802c2.21898 0 3.09814 1.6607611 3.09814 3.5511741v1.6252965c0 2.2900721-1.230328 3.6146632-3.106572 3.6146632-1.754848 0-2.988152-1.2390297-2.988152-3.6146632v-1.6252965c0-2.5336123 1.46754-3.5511741 2.996584-3.5511741zm9.46802 12.0822754v-23.16062928l4.672692-.40623111v15.52370769l4.635864-7.3971015h4.934704l-4.836 7.6612261 5.022248 7.7790281h-4.948716l-4.8081-7.5534682v7.5534682z" fill="#161637" fill-rule="nonzero"/></g></svg>