<svg height="108" viewBox="0 0 226 108" width="226" xmlns="http://www.w3.org/2000/svg" xmlns:xlink="http://www.w3.org/1999/xlink"><mask id="a" fill="#fff"><path d="m0 0h80.887656v216h-80.887656z" fill="#fff" fill-rule="evenodd"/></mask><path d="m17.3659022 215.991363c-3.0814828.093246-5.5682736-.572478-8.72008418-1.805028-5.91935-2.314776-9.3468455-8.567383-8.06575435-14.8166 1.37786219-6.724491 4.31025-12.790605 9.66585233-18.514815 6.2653628-6.696235 15.5418805-9.562579 22.90717-14.285942 14.259664-9.144382 19.5455012-15.18563 19.5455012-23.855867s-5.634663-14.162178-19.8948897-23.30656c-7.3652895-4.723363-14.0121102-10.291597-20.277473-16.987832-8.13214376-8.6917122-12.5262245-17.6038251-12.5262245-28.9787781s3.99799459-20.6611825 12.1301384-29.3523293c6.2648001-6.696235 13.5923939-11.4433338 20.9576834-16.166132 10.733147-6.8827282 16.4161956-12.4170542 18.5704767-18.43061123 1.4791342-4.12828058 4.7249027-7.36421962 8.9085626-8.62446133.3763944-.11359129.7437868-.22153128 1.1027399-.32438509 11.2727019-3.22181076 21.0274486 8.53234501 15.7528638 19.04490835-2.4817273 4.9454598-5.8726523 9.5772719-9.758685 13.7304183-6.2653628 6.696235-12.7934702 12.5639882-20.1587597 17.2873515-14.259664 9.1438166-19.7823653 14.165569-19.7823653 22.8352408 0 8.6702369 5.5885281 13.5891355 19.8481921 22.7335172 7.3658521 4.7233629 14.3260535 10.2243469 20.5914163 16.9205819 8.1321438 8.691712 12.7253928 18.244118 12.7253928 29.619071s-5.0354702 20.509727-13.167614 29.201439c-6.2653628 6.696235-12.0637489 13.747937-19.4290384 18.470736-10.6948887 6.858427-16.9613767 11.768284-19.4262253 17.452369-2.0350052 4.692847-6.4054558 7.999992-11.4988761 8.153708" fill="#fb5d2e" fill-rule="evenodd" mask="url(#a)" transform="matrix(.12186934 -.99254615 .99254615 .12186934 .850967 80.944277)"/></svg>