<svg height="114" viewBox="0 0 120 114" width="120" xmlns="http://www.w3.org/2000/svg"><path d="m57.4577961 121.789216c.1409607.235808.1527511.54917.2242795.826638l-.6945852-.17869c-1.3341485-.344542-2.669345-.684367-4.0006114-1.039651-.1535371-.040873-.2840174-.168734-.4375545-.263843 1.6147598-1.214148 3.9812227-.89476 4.9084716.655546zm18.7801572-.161188c-1.680786.230044-3.118952.427074-4.6040175.630393.599214-1.747336 1.7339738-1.919214 4.6040175-.630393zm-12.4669258-7.922043c1.7276856-.044804 3.5918777 1.73869 3.6256769 3.468995.0222707 1.14393-1.4187773 2.437205-2.7683843 2.484367-1.320786.046114-3.2371179-2.086376-3.2368559-3.601834.000262-1.45048.8722271-2.311965 2.3795633-2.351528zm-19.3126637-.969066c1.409607.165066 3.7082096 2.04917 3.6510917 2.992664-.0914411 1.510742-2.2412227 3.908646-3.4317904 3.827685-1.5830568-.107685-2.9845415-1.650131-2.8760699-3.165851.1383406-1.934149 1.4884716-3.791791 2.6567686-3.654498zm42.7077904 2.306568c.72 1.292227.3670742 2.045764-1.0650655 2.609083-.5779913.227423-1.0231441.772139-1.5791267 1.082096-.6112664.340349-1.5856768.984891-1.8644541.776856-.7042795-.525328-1.1229695-1.444716-1.6155459-2.231529-.0977292-.155895-.0141485-.424978-.0146725-.641921.0180786-1.535371.7291703-2.471266 2.1524018-2.833101 1.4004367-.356593 3.4532751.281398 3.9864629 1.238516zm-33.3830306-8.403695c2.1081223.118166 4.0283843 1.672926 4.0082096 3.245241-.0191266 1.482183-2.4395633 3.371266-4.1973799 3.275633-1.4051529-.076507-2.8910044-1.866026-2.8357205-3.415546.0715283-1.999651 1.2455895-3.205153 3.0248908-3.105328zm21.1818865-.513773c.3956331.191267.8808733.295546 1.1685589.591616.6314411.650568 1.560786 1.350393 1.6532751 2.116245.1967686 1.633886-2.3517904 4.306375-3.78131 4.324978-1.0071616.0131-2.5936245-1.664018-2.5624454-2.70917.0827947-2.807424 1.2102183-4.163843 3.5219214-4.323669zm18.6158777 1.024799c1.7536244.006049 3.5808733 1.835918 3.539214 3.544215-.027249 1.127161-1.5550219 2.425152-2.8517031 2.423582-1.2738865-.001574-3.2612227-2.299652-3.2006987-3.700875.059214-1.356943 1.0739738-2.27214 2.5131878-2.266922zm-57.2695022-1.01775c2.6447162.078078 3.540262.835545 3.3458515 3.244716-.1849781 2.293624-.9940611 3.401135-2.5469869 3.276681-2.0929257-.020437-3.930131-1.533275-3.9217753-3.228472.0081509-1.568384 1.6836967-3.335371 3.1229107-3.292925zm8.2664803-6.9579306c1.0396507.691179 2.0798254 1.3920526 3.0366813 2.1898686.2937118.244717.512227.830568.450393 1.208647-.2889956 1.759388-1.3003494 3.044541-2.9313537 3.761921-.2761572.121572-.7357206-.131004-1.0965066-.252576-1.4303057-.481834-2.3350218-1.728472-2.2315284-3.197293-.1262882-1.556594.5855896-2.793799 2.0724891-3.5824453.2059389-.1089957.5554585-.2242795.6998253-.1281223zm18.7799476-.1185066c1.7748472.028035 4.1452402 1.8927512 4.5356332 3.5672492.1815721.779738-.5979039 2.699476-1.3341484 3.120262-.9636682.551004-1.7971179.390655-2.7547599-.274585-1.1300436-.785241-2.1586899-1.561834-2.6939738-2.867948-.6707423-1.636769.5499564-3.5722271 2.2472489-3.5449782zm23.2041223 1.0359562c.6961572.518253 1.4937118 1.235371 1.1541485 2.444018-.2753712.981222.1092576 2.268471-1.4158952 2.53703-1.0320524.181834-2.0148472.635895-3.1144978.064978-.9956332-.516943-2.4453275-.492314-2.0806114-2.314847-.3356332-1.577816.8297817-2.233886 2.0020088-2.8658513 1.171441-.6319651 2.4408733-.6196507 3.4548471.1346723zm-60.2655982-1.0262121c1.652489-.0106873 3.7755458 1.5535051 3.7716211 2.7789201-.0057696 1.790829-1.7834989 3.242096-3.9605294 3.232969-1.6244542-.007118-2.4956332-1.230961-2.5354585-3.5631-.0209607-1.225415 1.3296943-2.4398257 2.7243668-2.4487891zm78.4532224-.0621982c.400612.2379039 1.094935.4365065 1.132926.7226201.056594.4228822-.288472.9544982-.577467 1.3572052-.775022 1.080786-1.599302 2.126987-2.430655 3.165328-.227162.283493-.548647.491528-.8269.733886-.271441-.329607-.651354-.617817-.795982-.995895-.623843-1.635197.564628-4.1496945 2.238602-4.7557207.326987-.118428.733363-.0170306 1.103057-.0170306zm-48.3861482-5.5917118c.5190393.5203494 1.3307424 1.2144105 1.2728384 1.7499563-.1323144 1.2314411-.4587773 2.5572053-1.741572 3.268297-.2266376.1257642-.4320524.2892576-.6508297.4294323-.6450655.4129258-1.3006114 1.0941485-2.0924018.4383406-.8606987-.7131878-2.0897816-1.2406113-2.071965-2.819738.3872489-.9361572.6238428-1.979214 1.1944978-2.7854148 1.0286463-1.4538865 2.8438428-1.530131 4.0894323-.2808734zm17.8670306-.3887161c2.1256768-.0217468 3.6979912 1.3941484 3.7108739 3.3419213.0096501 1.4960699-1.5739307 3.1537992-3.0396076 3.1820961-1.7916157.0340612-4.0032314-1.6910043-3.9859388-3.1097816.0241048-2.008035 1.3700436-3.3943232 3.3146725-3.4142358zm19.5034847-.5145342c2.0441921.0028835 3.8549345 1.8364206 3.8229694 3.8714424-.0193886 1.2327511-1.6006113 2.639476-2.9863755 2.6559826-1.7727511.0217467-3.5232315-1.8487336-3.4868123-3.7257642.028821-1.4895197 1.2715284-2.8032315 2.6502184-2.8016608zm-76.7091616-.4518851c1.1502184.299476 2.3140611.6788647 3.3413974 1.2560699.4375546.2457642.5441921 1.0815721.8009607 1.649083-.1878603 1.8623581-1.1651528 3.391441-2.5949345 3.8622707-1.56.5140612-3.5727511-.0835808-4.6013974-1.3663755-.6262009-.780524-.630917-2.5131878-.0099563-3.598428.6636681-1.1596506 2.0504803-2.0662008 3.0639301-1.8026201zm19.3827511.4463715c1.7572926.004729 3.270917 1.4022836 3.2882096 3.035122.0154585 1.4965939-.9083843 2.4673362-2.3549345 2.4728778-2.0502183.0080829-3.5808733-1.2401267-3.6217467-2.9528778-.0330131-1.4025328 1.1840175-2.5595633 2.6884716-2.555122zm46.9471441-6.0339697c2.4241048-.0366812 3.6107424.7165939 4.0540611 2.4209607.3720524 1.4303057-1.1069869 3.4931004-2.5786899 3.5976419-2.2875983.1619214-4.3139738-2.3122271-3.7270742-4.531441.3489956-1.32 1.2686462-1.6422708 2.251703-1.4871616zm-76.91096069-1.0237467c1.73737991.0285589 3.96157209 1.7331877 4.48349349 3.4362445.2289956.7480349-.4658516 2.668821-1.21441052 3.1606114-.97991266.6437554-1.8241048.450131-2.85432314-.1899564-1.25606987-.78-2.03213974-1.7462882-2.57266376-3.0806987-.6571179-1.621834.4050655-3.3547598 2.15790393-3.3262008zm96.70616599-.0015302c1.817817.0055127 4.152052 1.8311895 4.524891 3.5397485.185764.8531004-.539476 2.6832314-1.304018 3.1291703-1.022882.5968559-1.855808.3115284-2.855371-.3434934-1.218602-.7986027-2.185939-1.68-2.679563-3.0369433-.558079-1.5345851.694585-3.2934498 2.314061-3.2884821zm-35.975214 1.5937572c1.1195633.7920524.3830567 1.7198254.090917 2.6625328-.4558952 1.4732751-1.740524 1.9582533-2.8600873 2.6221834-.7053275.4186899-2.7010481-.960786-2.9730131-1.9582533-.4092577-1.50131.240786-3.4857642 1.5099563-4.3186899.4944105-.3243669 1.1200873-.449345 1.6860262-.6649782 1.4625328-.2570306 1.7795633 1.1153712 2.5462009 1.6572052zm-22.7684804-1.5710305c1.3357205.092489 3.7907424 2.1586899 3.6956332 3.1100436-.151703 1.5138865-2.281572 3.809869-3.4310044 3.6985153-1.4758952-.1430568-2.9633187-1.8162445-2.8668995-3.2250655.1244541-1.8131004 1.4669869-3.6620961 2.6022707-3.5834934zm-17.4972576.4931004c2.6449781.1815721 3.2724891.5884716 3.6020961 2.789345.0770305.5132751-.0031442 1.2049781-.3005241 1.591703-.930917 1.2102184-2.3132751 1.7248035-3.781572 1.5859389-1.350655-.1273362-2.2760699-1.1195633-2.7199127-2.3431441-.6940611-1.9116157.870131-3.6178166 3.1999127-3.6238428zm67.9711703-7.0849258c1.231441.6862009 2.3926637 3.0096944 2.190655 4.3823581-.2331878 1.5812227-.8727511 2.1408734-2.729869 2.1767686-.1826201-.0463756-.6206987-.0969433-1.0082096-.2648909-1.5461135-.6694323-2.6753712-3.451703-2.0609607-5.0080349.6919651-1.7531004 1.9598253-2.2050655 3.6083843-1.2862009zm-37.0933101 3.5757642c.0335372 1.4069869-1.6873362 2.9596507-3.2664628 2.9761572-1.5911791.0167686-3.2258516-1.5586899-3.2510044-3.1336244-.0317031-1.9564192.9885589-2.8396507 3.3251528-2.879476 1.8230568-.1307424 3.1441048 1.0179039 3.1923144 3.0369432zm16.4751878-3.0358428c1.8073363.0366813 3.6809607 1.5034061 3.6424454 2.8514411-.0492576 1.7473362-1.8028821 3.1650655-3.9075982 3.1595793-1.6165939-.0044701-2.6339738-1.4664789-2.5705677-3.6948632.0348472-1.2241048 1.4072489-2.3455021 2.8357205-2.3161572zm-53.2766725 2.4619389c.0374673 1.4227074-1.5932751 2.9800873-3.1862882 3.0364192-1.5749345.0555459-3.2803493-1.5083843-3.3290829-3.0534498-.0610481-1.9320524 1.020524-2.911703 3.2630567-2.9549345 1.7051529-.2038428 3.1991267.9489957 3.2523144 2.9719651zm18.5425415.4335721c.0311791 1.4030567-1.4502183 2.5124017-3.4283843 2.5679476-1.3713537.0385152-2.882096-1.5432315-2.9190393-3.0560699-.0516157-2.1193887 1.1156332-3.3935371 3.1506551-3.4391267 2.0931877-.0471615 3.1370305 1.2353712 3.1967685 3.927249zm75.004428-3.3681485c-.078341.5635808-.138079 1.1308297-.238952 1.6907423-.206725 1.1470743-.420524 2.2931005-.661048 3.4331005-.142271.6751965-.497555.900786-1.052751.3440174-.740175-.7427947-1.476681-1.4963318-1.279127-2.6950218-.099563-.0623581-.199126-.1247161-.29869-.1870742.479214-.7034935.838166-1.559738 1.476157-2.0612227.508035-.3998254 1.356944-.3660262 2.054411-.5245415zm-29.5882795-6.9462708c.9579039.1970306 2.1945851 1.467511 2.3855895 2.4317031.3369432 1.7030568-2.3777293 4.4952838-3.8221834 4.4248035-1.111441-.0544978-2.5037555-1.890393-2.4445415-3.2242795.1134498-2.5674236 1.5432315-4.1130131 3.8811354-3.6322271zm-40.5357642-.1395458c1.2854148.1150218 3.7110917 1.9923144 3.7113538 2.8724017.0005239 1.528297-2.2082097 4.0055896-3.4938866 3.9186027-1.3103056-.088821-2.9232314-1.6013974-2.8855021-2.7062883.0749345-2.191441 1.3862882-4.1989519 2.6680349-4.0847161zm-18.1286201-.0037729c2.4940611.2237554 3.5525764 1.6189519 3.7682096 3.8651528.1040175 1.0818341-1.7206113 2.6020087-2.9926637 2.6423581-1.6632315.0529257-3.4813101-1.8178166-3.4826212-3.5829695-.001309-1.7397379 1.1496954-3.0641921 2.7070753-2.9245414zm77.2927338-.0197293c2.186987.0390393 4.190043 1.62131 4.110917 3.2475983-.068646 1.4151091-2.40655 3.2777292-4.102795 3.2691129-1.391266-.0071042-2.997904-1.9095496-2.930044-3.4698116.088821-2.0517904 1.07476-3.0799127 2.921922-3.0468996zm-96.72293467.0010218c2.16235808.0427075 4.20681227 1.6718778 4.10436677 3.2706551-.090393 1.4135371-2.44270738 3.2567685-4.13921393 3.2439301-1.43056768-.0110044-2.94655022-1.8482096-2.88078602-3.4912664.08227074-2.0593886 1.04751091-3.060262 2.91563318-3.0233188zm61.33600877 2.4352402c.091965.2318777.1359825.4823581.2022707.7244542.0859389 1.8041921-1.5133624 2.2634934-2.4948472 3.1768559-.1255021.1165938-.4868122.0272489-.7231441-.030131-1.9351965-.4716158-3.0827947-1.7863756-3.7058515-3.5958079-.2656768-.7718777 1.1646288-2.4387773 2.2155459-2.6717031 1.7025327-.3772925 3.8578166.7645415 4.5060262 2.3963319zm-11.0598079-6.8964891c1.170131.8646289.3138865 1.6716158-.0421834 2.5878603-.3560699.9154585-.9034061 1.5154585-1.7043668 1.9820961-.721048.420262-1.3351965 1.2254148-2.3219214.5882096-1.499214-.9673363-1.9063756-1.7444542-1.5487336-3.2845415.18131-.7815721.4362445-1.5854149.8475982-2.2642795.5284716-.8722271 1.2364192-1.109869 2.4026201-1.0862882 1.2710044-.4252402 1.5979913.9089083 2.3669869 1.4769432zm59.1171088-.377476c-.242096 1.5770306-.36786 3.1826201-.767423 4.7177293-.115808.4451528-.997991.9644542-1.531965.9681409-.994585.0065316-2.265328-1.7193199-2.103406-2.7235994.148559-.9222708.351615-1.8809607.768995-2.7023581.481048-.9474236 1.289083-1.6378166 2.560612-1.351703.960524-.2774673 1.210218.1988646 1.073187 1.0917903zm-77.9903839-.3631703c1.7001747 1.62 1.558952 3.4891703-.3702183 4.8618341-.3529258.2512664-.6830568.5753712-1.0768559.7179039-.5654149.2043668-1.3734498.5724891-1.7342358.3390393-.8554586-.5531004-1.9165939-1.1169432-1.8901311-2.9565065.2177293-.5722271.4537992-1.7046288 1.0383407-2.6132751.9518777-1.4793013 2.7668122-1.5555459 4.0331004-.3489957zm55.1766288-.9849956c2.2527511.2769432 3.329869 2.3143232 2.4917031 4.2932751-.449345 1.0608734-1.1876856 1.619214-2.0253275 2.1948472-1.3262882.9110043-3.5939738.0225327-3.7142358-1.5838428-.1095197-1.4654149.1351965-2.9905677 1.380524-4.01869.5151091-.4252401 1.2387773-.5979039 1.8673362-.8855895zm-18.7337554-.0419738c.0560698.0982533.1126637.1965066.1692576.2947598 1.3391266-.3657642 1.7004367.9060262 2.4565939 1.4910917 1.1486463.8895197.2284716 1.6938865-.0961572 2.6051529-.388035 1.0886463-1.198428 1.6186899-2.0520524 2.189607-1.2859389.8599126-3.7959826-.2939738-3.6851529-1.8421834.0854149-1.1929258.5559826-2.4427075 1.1703931-3.4807861.36-.6081222 1.3372925-.8504803 2.0371179-1.2576419zm-56.8365852.0373625c2.2257642.2772052 3.3636681 2.4028821 2.45869 4.2974672-.478952 1.0029694-1.1541485 1.6448908-2.0287337 2.2131878-1.3302183.8641048-3.7260262-.1537991-3.7587773-1.7455022-.0280349-1.3734498.1962446-2.8291703 1.3663756-3.7902183.5499563-.4519651 1.3019214-.657642 1.9624454-.9749345zm85.8989087-5.9635284c2.712052.0461135 3.411877.6961572 3.419505 3.1771179.006259 1.9904803-1.011121 3.3717904-2.478632 3.3655235-2.024542-.0086676-3.962096-1.5403707-4.023406-3.1808074-.055546-1.4816594 1.690218-3.3854148 3.082533-3.361834zm-38.5462537-.3682533c.7579913.0282969 2.5517031 1.8390393 2.5344105 2.5585153-.0408734 1.7208733-2.398952 4.3448908-3.8677729 4.3037554-1.229345-.0345851-2.4935371-1.6763318-2.4408734-3.1695196.089869-2.5467249 1.3537991-3.7831441 3.7742358-3.6927511zm-54.7523318 3.0914672c-.0083843 1.9040175-1.12218346 3.3552839-2.55589525 3.330131-2.04628821-.0356331-3.94637554-1.5937991-3.95346641-3.241572-.00600957-1.4737991 1.62682886-3.2887336 2.98351008-3.3159825 2.57659389-.0526638 3.53633188.8258515 3.52585158 3.2274235zm73.6486375-3.2412555c1.5943231-.009644 3.3665502 1.3842424 3.3979913 2.6725394.0424454 1.7245415-1.6144978 3.8730131-2.9958079 3.8853275-1.7006987.0146725-3.5237554-1.8924891-3.4870742-3.6479476.030393-1.4460262 1.5731004-2.9006987 3.0848908-2.9099193zm-39.713214-.4146571c1.3404367.0969432 3.7742358 2.0512664 3.7142358 2.9832314-.0932751 1.4531005-2.1937991 3.8578166-3.3432314 3.8271616-1.3776419-.0364192-3.0581659-1.7261135-2.9774673-2.9934498.1341485-2.1060262 1.3637555-3.9065502 2.6064629-3.8169432zm-14.676917 1.9454672c.4645415.359738.7131878.9985153.8793013 1.2437555.0214847 1.469345-1.018952 2.7131004-2.2616594 3.0958952-1.410393.4344105-3.3047161-.2127511-4.1627947-1.4219214-1.1732751-1.6540611-.389607-3.3841048 1.6427947-3.8020087 1.4669869-.3018341 2.7678603.0055021 3.9023581.8842794zm85.032079-7.590917c1.045414.5282096 1.349345 1.2075983 1.299563 2.2414847-.016245.3458515-.063144.7257642.05083 1.0365066.49048 1.3388646-.391965 1.9097816-1.319476 2.4482096-.972053.5641048-1.933887.3770305-2.57869-.450393-.688035-.8829695-1.160699-1.9341485-1.727424-2.9117031l.307074-.1781659c.063668-2.3601747 1.840612-3.2601747 3.968123-2.1859389zm-60.0802013-.8284454c1.0645415.0262009 3.0573799 1.6003493 3.0637198 2.4206987.0130488 1.6480349-2.4686979 4.441048-3.9225844 4.4151091-1.1219214-.0201746-2.5548472-1.6556331-2.5100437-2.8648034.0977293-2.637904 1.2720524-4.0218341 3.3689083-3.9710044zm41.5091005.7333362c1.7586026 1.5979913 1.6061135 3.6157206-.3759826 4.9611354-.3230567.2193013-.6227947.5276856-.9801746.628821-.6183406.1744978-1.4667249.5172052-1.8720524.2546724-.8119651-.5261135-1.8510917-1.0679475-2.0305677-2.3955458.3332751-1.0021834.4965065-2.1102183 1.0370305-2.9840175.9911791-1.6019214 2.8338865-1.7261135 4.2217468-.4650655zm-21.9063144-.4255284c1.7358078.0172926 3.1391266.9503057 3.5268995 2.3436682.2879476 1.0354585-.3078602 2.4935371-1.3619214 3.2785153-.9146725.6814847-1.8681222.5237554-2.8121397.0681222-1.1059389-.5339738-1.8510917-1.3427947-2.1073363-2.6009607-.42131-2.0685589.4836682-3.1124017 2.7544979-3.089345zm-56.8162009-.1845851c1.2285589.6157205 2.9837554.8793013 3.0183406 2.9855895-.0112664.9453275-1.7321397 2.8569432-2.998428 3.181048-1.0558951.269869-2.2530131-.4726637-2.9850655-1.8510917-.7603493-1.4321397-.5745851-3.2232314.4255022-4.0983406.0327511-.0288209.0665502-.0744104.1029695-.0775546.8232314-.0720524 1.8055021-.4558951 2.4366812-.1396506zm19.4810043-.3207512c1.7478603-.0002619 3.1768559.9330132 3.5709171 2.3321398.5512664 1.9585153-1.5020961 4.1355459-3.4619214 3.6120524-1.1111791-.2965938-2.0475983-.901572-2.5582533-2.0211353-1.0273362-2.2537992.0081223-3.9222708 2.4492576-3.9230569zm-26.5225676-3.807406c-.0387773 1.7672489-1.59668126 3.7561572-2.96174676 3.781048-1.49266376.0269869-3.49703057-1.7305677-3.5219214-3.0885589-.03196506-1.7565066 1.36375546-3.3563319 2.99947598-3.4370306 1.59694324-.0791266 3.51301308 1.4303057 3.48419218 2.7445415zm93.9301314-2.7443057c1.632576.0424454 3.36131 1.4793013 3.31572 2.7558079-.064454 1.8091703-1.57572 3.7409607-2.948384 3.7689956-1.656419.0337991-3.551791-1.799738-3.553101-3.4370306-.00131-1.589869 1.586987-3.1291703 3.185765-3.0877729zm-17.0114415 2.7573799c.5431441 1.7772053-1.1258515 3.8879476-2.969607 3.7561572-1.4916157-.1066375-2.9054148-1.3108297-3.2531004-2.7702183-.4828821-2.0279476.4116157-3.1959825 2.4833188-3.2423581 1.9053275-.0424454 3.2926637.7946725 3.7393886 2.2564192zm-42.8941048-3.2083493c1.3750219.122096 3.720262 2.0224454 3.6712664 2.9745851-.0767686 1.4942358-2.2422707 3.9455895-3.4213101 3.8727511-1.6006113-.0987773-2.9965938-1.6962445-2.880262-3.2958078.1336245-1.8372053 1.4793014-3.6534498 2.6303057-3.5515284zm-17.2852664-.0564629c1.5689083-.0361572 3.3571179 1.3624454 3.4050655 2.6630568.0639302 1.7337118-1.5707423 3.8549345-2.9777292 3.8641507-1.6087336.0104344-3.4828821-1.7762031-3.5077729-3.3443254-.0262009-1.6430568 1.4271615-3.1448908 3.0804366-3.1828821zm36.6883756.51361c1.7169432-.0119943 3.5866375 1.8516738 3.5559825 3.5450363-.0199126 1.1166812-1.3920524 2.3292576-2.7062882 2.3921397-1.350917.0647162-3.2753712-1.9878602-3.299476-3.5190393-.0233187-1.4777292.9180786-2.4070742 2.4497817-2.4181367zm-45.432524-6.6314615c.3107423.2229694.6275109.4448908.9668122.6183406 1.9422707.9930131 2.1979913 3.2973799.4475109 4.6129257-.5910917.4443669-1.3448908.6725765-2.0588646 1.0163319-.6217467-.239214-1.1790393-.3571179-1.6286463-.6442795-1.6551092-1.0558952-2.429607-3.3953711-1.6388646-4.7821834.7396506-1.2974672 2.6848035-1.7017467 3.9120524-.8211353zm79.1849345 3.1735808c.0558078 1.4680349-1.6312664 2.911441-3.2850655 2.9151157-1.6472489.0036615-3.2324018-1.5180852-3.2418341-3.1118843-.0112664-1.9163319 1.0779039-2.8600873 3.3516157-2.9035808 1.9532751-.0408734 3.1019214 1.1717031 3.1752839 3.1003494zm-39.8030306-.3628035c-.0238428 2.042096-.990393 3.2900436-2.5378166 3.2764192-2.0591266-.0178166-3.9772926-1.5749345-3.9641921-3.2179913.0112663-1.4460262 1.6949345-3.2918777 3.0175546-3.3081223 2.6515283-.0330131 3.5132751.7708297 3.4844541 3.2496944zm16.0399651-2.7518778c1.9674235.028035 3.5578166 1.3134498 3.5816594 2.8941485.0227947 1.5379913-1.4436682 3.1412227-2.8658516 3.1326112-1.9535371-.0118252-3.6117904-1.6779387-3.6366812-3.6537466-.0217467-1.7334498.8027948-2.4031441 2.9208734-2.3730131zm39.7917121.1540612c.447249 1.711441.762445 3.4574672 1.188995 5.4573799-.278253.1234061-.621746.4260262-.883493.3668122-1.747074-.3945851-2.408122-1.8374672-3.001834-3.3036681-.450393-1.1124891.241572-1.9401747.846288-2.7057642.59083-.7477729 1.635983-.6340611 1.850044.1852402zm-76.1925331-.2756594c.11869.0537118.2344978.1137118.3542358.1642795 1.9462009.8240174 2.5768559 1.5227947 2.3753712 2.6344978-.2942358 1.6252401-1.6818341 2.7136244-3.5743232 2.8042794-1.0849781.0518778-2.1733624-.7585152-2.7083842-2.2089956-.3875109-1.050131-.4053275-2.1503057.4370305-3.0560699.7868123-.8462882 1.7887337-.9379912 3.1160699-.3379912zm46.8465066-6.7453625c1.9158078.1404367 3.8779912 1.5220088 3.7603493 2.6473363-.2140611 2.0431441-1.7496943 3.3115284-3.8297817 3.1632314-1.6907423-.120786-3.1857642-1.5573799-3.0846288-2.9638428.1220961-1.7017467 1.5230568-2.9662009 3.1540612-2.8467249zm19.3399655-.1856594c1.755196-.0214847 3.562008 1.7460262 3.552613 3.4760699-.006587 1.1889956-1.354098 2.4157205-2.724928 2.4806987-1.245851.058952-3.259127-2.1186026-3.281135-3.5491703-.022271-1.4510044.933537-2.3889956 2.45345-2.4075983zm-59.2086031-.978262c1.3855022.0830568 3.7865502 2.0840175 3.6961572 3.0799127-.1333624 1.4669869-2.2401747 3.8240175-3.3757205 3.7765939-1.469607-.0620961-3.0322271-1.73869-2.9316157-3.1462009.1391266-1.9459389 1.4308297-3.78131 2.611179-3.7103057zm20.4951878.4603745c1.7017467-.001309 2.7880349 1.2186037 2.7474236 3.0851539-.0393014 1.8086463-1.3116158 2.9777293-3.1244542 2.8710917-2.2750218-.1338864-3.1566812-.9746725-3.1281223-2.9840174.0209607-1.4648909 1.7965939-2.9711791 3.5051529-2.9722282zm-38.7812227.0333548c.1726637-.0020961.3458515.0230568.5185152.0353712 1.4470743-.0665502 2.5983407.6458515 3.5124891 1.6173799.3311791.3521397.267773 1.1876856.1988647 1.7811354-.1509171 1.3000873-1.0338865 2.310131-2.1995634 2.4212227-.9358952.0893449-2.0428821-.4878603-2.8951965-1.0435808-.5798253-.3780786-.9757205-1.1832315-1.2356332-1.8788647-.7048034-1.8877729.0647162-2.9085589 2.1005241-2.9326637zm30.1547423-5.4842882c.8360699.869345 1.2081223 2.1848908 1.8468996 3.4425327-.4679476.8030568-.7029694 1.6878603-1.2754585 2.0816594-.9610481.660786-2.1374673.6521398-3.1949345-.0086463-1.0954585-.6843668-2.1505677-3.1137118-1.8206987-4.3490829.2465502-.9220088.6529257-2.0486463 1.6587773-2.09869.9337991-.0466375 2.1704803.2931878 2.7854148.9322271zm38.9847773-.9931703c.9272489.2271615 1.5196507.7380786 1.7227074 1.7051528.1113538.5308297.3348472 1.0375546.4962446 1.558428.4124017 1.3307423-.9188646 2.8619214-2.7165066 3.1173799-.2127511.030393-.4331004.0041921-.5470742.0041921-1.648559.2164192-2.1951092-1.0262882-2.849345-1.9907423-.5502183-.8109171-.2575546-2.9172053.4944105-3.5562446.9565939-.8127511 2.1123144-1.1536244 3.3995633-.8381659zm-20.9839126-.1064804c2.2197379.2365939 2.8928384.3361572 3.3668122 1.798952.8512664 2.6266375-.1744978 3.5085589-2.9557205 4.1662009-1.7064629.4034934-3.6047162-1.2031441-3.7637555-2.9557206-.150393-1.6608733 1.3454148-3.0039301 3.3526638-3.0094323zm-58.1180175-.5147423c1.9443668.0248908 4.3113537 1.8262008 4.310306 3.2800873-.0007864 1.1620087-2.540699 3.23869-3.9691706 3.2457896-1.6152839.0078349-2.9651529-1.8078857-3.0070743-4.0451782-.0235808-1.2686463 1.2974673-2.4982533 2.6659389-2.4806987zm21.2030568.5098952c.4687336.1438428 1.3082096.2664628 2.0088209.6453275 1.3734498.7427947 1.5838428 1.7989519.7873363 3.1561572-.5824455.9922271-2.1358952 1.7908297-3.1629695 1.651179-1.5474236-.210917-2.7089083-1.0244541-3.2274236-2.4626201-.54262-1.5044541 1.0986027-2.9431441 3.5942359-2.9900436zm47.5773537-6.959345c.9162445.5001747 2.1241048 2.7731004 2.102096 3.809869-.0466375 2.2220961-2.1455895 3.3880349-4.0676856 2.2593013-1.1829694-.6945852-2.3347598-3.2863756-1.8791266-4.558952.7171179-2.0033187 1.6844542-2.6887336 3.8447162-1.5102183zm-56.4399826.4099389c.8531005.8580786 1.258428 2.161834 1.6000874 2.7814847-.0484716 2.7581659-1.7617468 3.870655-3.7247162 3.0400873-1.4465502-.6123144-2.700524-3.3833188-2.1985153-4.8576419.7294323-2.1424454 2.6363319-2.6601747 4.3231441-.9639301zm38.8454935.7676593c.211441.2122271.4063755.5596507.4061138.8449782-.0015723 1.7630568-2.421747 4.4604367-3.8965942 4.3996507-1.2141484-.0500437-2.4738864-1.7798254-2.4157205-3.3172926.0736245-1.949083 1.4431441-3.5968559 2.7948472-3.6801747 1.4929257-.0919651 2.2469869.8845415 3.1113537 1.7528384zm-22.9081834-1.7539126c1.4172052.1587773 3.7354585 2.0643668 3.6683843 3.0159825-.1108297 1.5712664-2.2257642 3.869607-3.4878603 3.7899563-1.5395633-.0972052-2.9242795-1.621048-2.819214-3.1016593.1370306-1.9307424 1.4916157-3.8324018 2.63869-3.7042795zm9.9982533-6.0740303c1.6619213.0110696 3.3738864 1.402336 3.332489 2.7084495-.06 1.890131-1.6532751 3.8732751-3.0704803 3.8211354-1.648297-.0607861-3.4598253-1.9503931-3.4333625-3.5816594.0254149-1.5754585 1.5136245-2.9588647 3.1713538-2.9479255zm20.7048995.2988862c.118166.0539738.2237555.1357205.3427074.1870742 2.1144105.9131004 2.6292577 1.4840175 2.4358952 2.7065502-.2520524 1.5932751-1.6658515 2.6952839-4.2772925 2.8388647-.8848035-.0115284-1.4064629-1.2778166-1.9765939-2.3420961-.5562446-1.0383406-.3558079-2.1495197.4724017-3.0141485.8651529-.9034061 1.9241922-.870917 3.0028821-.3762445zm16.8524018 3.8092663c1.1258515.4978166 2.251703.9953712 3.5177292 1.5552839-1.499738.631703-2.8092576.0964192-3.5177292-1.5552839zm-55.4409433-4.614786c1.7601747-.0558078 3.5737992 1.6697817 3.6241048 3.448297.0322271 1.1434061-1.3532751 2.3929257-2.762096 2.491179-1.1816594.0822707-3.2072489-2.0591266-3.2756332-3.4629694-.0704804-1.4415721.8910917-2.428035 2.4136244-2.4765066zm7.8333537-7.04507421c1.3131878.07624454 3.7603494 2.01563318 3.7255022 2.95257641-.060786 1.63414848-2.2239301 3.9581659-3.570393 3.8360699-1.6000873-.1456769-2.8370306-1.63912666-2.729345-3.2963319.1116158-1.71930131 1.4659389-3.55650655 2.5742358-3.49231441zm-15.427572 1.08151965c.7344105.46585152.7380786 1.15048035.4752838 1.83563318-.3395633.88558952-.6081222 1.87965066-1.2094323 2.56008734-.5444541.61676856-1.4942358.87589524-2.2653275 1.29248904-1.20131-.272227-1.9613974-.79048031-2.3352838-1.76305673-.3075983-.80043668.3026201-2.2412227 1.052489-2.70655021.6932752-.43021834 1.4641049-.77004367 2.067511-1.30113537.8276856-.72864629 1.4918777-.37572053 2.2147598.08253275zm34.8900786-.58430697c1.8020961.00657771 3.5876856 1.77461264 3.5517904 3.51775675-.0225328 1.10200873-1.5497817 2.40471618-2.8477729 2.42934498-1.2411354.0233188-3.1875983-2.25353712-3.1606114-3.69720524.0264629-1.43475983.9227948-2.25537118 2.4565939-2.24989649z" fill="#ff7048" fill-rule="evenodd" transform="matrix(-.01745241 .9998477 -.9998477 -.01745241 124.181632 -1.74474)"/></svg>