<?xml version="1.0" encoding="UTF-8"?>
<svg width="68px" height="64px" viewBox="0 0 68 64" version="1.1" xmlns="http://www.w3.org/2000/svg" xmlns:xlink="http://www.w3.org/1999/xlink">
    <title>Icons / 96 x 96 / Upload Copy</title>
    <defs>
        <polygon id="path-1" points="0 0 27.3152629 0 27.3152629 27.9861 0 27.9861"></polygon>
        <polygon id="path-3" points="0 0 64.7795935 0 64.7795935 61.0547934 0 61.0547934"></polygon>
    </defs>
    <g id="How-it-Works" stroke="none" stroke-width="1" fill="none" fill-rule="evenodd">
        <g id="How-it-Works---Desktop" transform="translate(-938.000000, -1230.000000)">
            <g id="Group-39" transform="translate(924.000000, 1214.000000)">
                <g id="Group-7" transform="translate(14.000000, 16.000000)">
                    <g id="Group-3" transform="translate(39.826609, 0.000000)">
                        <mask id="mask-2" fill="white">
                            <use xlink:href="#path-1"></use>
                        </mask>
                        <g id="Clip-2"></g>
                        <path d="M27.1379912,14.2171 C27.1269912,13.9751 27.1199912,13.7271 27.1139912,13.4761 C27.0699912,11.8211 27.0209912,9.9471 25.5559912,8.7731 C23.9069912,7.4511 20.9019912,7.7021 18.4879912,7.9041 C17.7879912,7.9621 17.1279912,8.0171 16.5989912,8.0231 L3.86999125,8.1531 C4.23299125,7.6521 4.87299125,7.1291 5.44699125,6.6591 C5.85199125,6.3281 6.23399125,6.0161 6.52299125,5.7161 C7.55399125,4.6461 8.61799125,3.4301 9.77699125,1.9981 C10.2829912,1.3721 10.0279912,0.6931 9.57499125,0.3271 C9.06999125,-0.0819 8.25899125,-0.1779 7.74899125,0.4501 C5.99699125,2.6131 4.30799125,4.4441 2.58699125,6.0461 C2.43399125,6.1881 2.23799125,6.3461 2.02299125,6.5201 C1.13999125,7.2341 -0.068008753,8.2111 0.00299124696,9.3921 C0.075991247,10.6011 1.46299125,11.8541 2.47499125,12.7701 C2.72299125,12.9931 2.94699125,13.1961 3.11799125,13.3681 C4.72799125,14.9891 6.47199125,16.6231 8.44999125,18.3631 C9.05499125,18.8971 9.78599125,18.7031 10.1959912,18.2381 C10.5979912,17.7801 10.6849912,17.0361 10.0729912,16.4981 C9.77499125,16.2351 9.36599125,15.9071 8.89499125,15.5311 C7.27899125,14.2381 4.88599125,12.3231 3.93699125,10.5541 C6.10899125,10.5001 8.33499125,10.4961 10.4919912,10.4931 C13.4829912,10.4881 16.5759912,10.4821 19.5419912,10.3431 C19.7989912,10.3321 20.0889912,10.2971 20.3979912,10.2601 C22.0259912,10.0631 23.8689912,9.8421 24.4569912,12.2081 C24.6329912,12.9151 24.6279912,14.0841 24.6239912,15.1151 C24.6219912,15.5221 24.6199912,15.9031 24.6299912,16.2211 C24.7309912,19.4881 24.7619912,22.8921 24.7259912,26.6301 C24.7179912,27.4591 25.4739912,27.9791 26.1789912,27.9861 L26.1939912,27.9861 C26.8459912,27.9861 27.2869912,27.5701 27.2929912,26.9471 C27.3319912,22.9091 27.3409912,18.5721 27.1379912,14.2171" id="Fill-1" fill="#161637" mask="url(#mask-2)"></path>
                    </g>
                    <g id="Group-6" transform="translate(0.000000, 2.021207)">
                        <mask id="mask-4" fill="white">
                            <use xlink:href="#path-3"></use>
                        </mask>
                        <g id="Clip-5"></g>
                        <path d="M19.7278,45.1817934 C19.7978,44.1187934 19.8588,43.2007934 19.8628,42.4407934 C19.8658,41.8437934 19.8688,41.2397934 19.8778,40.6327934 C19.8868,40.0127934 19.9118,39.3837934 19.9518,38.7637934 C20.0108,37.8587934 20.0878,37.1767934 20.2028,36.5517934 C20.8798,32.8587934 22.4698,32.2917934 26.0298,32.3257934 C28.4868,32.3577934 30.9438,32.4057934 33.4008,32.4547934 L58.6158,32.8637934 C59.7818,32.8817934 60.8418,33.5177934 61.3828,34.5227934 C61.8268,35.3447934 62.0918,36.1947934 62.0928,36.7967934 C62.0958,37.9007934 62.0858,39.0057934 62.0648,40.1127934 C62.0498,41.8707934 62.0248,43.6297934 61.9998,45.3887934 L61.9638,48.0267934 C61.9558,48.6547934 62.0098,49.4187934 62.0678,50.2277934 C62.1988,52.0627934 62.3478,54.1427934 61.8328,55.4057934 C60.5028,58.6677934 57.6828,58.5087934 54.9528,58.3537934 C54.4388,58.3247934 53.9288,58.2957934 53.4348,58.2887934 L31.8118,58.0027934 C31.7448,58.0017934 31.6758,58.0007934 31.6058,58.0007934 C30.8578,58.0007934 30.0108,58.0507934 29.1178,58.1027934 C27.0458,58.2237934 24.6998,58.3627934 23.1158,57.8717934 C18.9708,56.5887934 19.4258,49.7237934 19.7278,45.1817934 M39.3328,22.5617934 C39.1388,25.3367934 38.2718,27.8777934 36.7588,30.1177934 L30.5788,29.9957934 C29.7168,29.9787934 28.8368,29.9197934 27.9858,29.8627934 C23.6648,29.5697934 19.5828,29.2947934 18.0558,34.3737934 C17.7008,35.5527934 17.4318,36.8867934 17.2338,38.4467934 C16.7028,38.4107934 16.2128,38.3627934 15.7428,38.3007934 C4.9018,36.8647934 2.0168,26.7987934 2.8398,18.6147934 C3.1978,15.0637934 3.7628,11.3627934 6.3528,8.55079335 C9.6328,4.98879335 15.7328,3.61879335 20.6338,2.51879335 L21.1328,2.40679335 C21.4738,2.35179335 21.9958,2.29279335 22.6538,2.29279335 C23.3208,2.29279335 24.1298,2.35379335 25.0318,2.54179335 C33.9838,4.65479335 39.9988,13.0747934 39.3328,22.5617934 M64.5558,46.3677934 C64.5698,45.2527934 64.6078,44.1307934 64.6448,43.0057934 C64.7208,40.7657934 64.7978,38.4507934 64.6838,36.1967934 C64.5788,34.1307934 63.9338,32.5657934 62.7648,31.5437934 C61.3718,30.3257934 59.2558,29.8517934 56.2998,30.0987934 L55.9798,30.1237934 C54.0558,30.2807934 51.4168,30.4957934 49.3028,30.3637934 L39.7108,30.1757934 C41.2068,27.4807934 41.9628,24.4377934 41.9578,21.1217934 C41.9558,18.6997934 41.5808,16.3487934 40.8458,14.1377934 C40.1288,11.9797934 39.0798,9.98079335 37.7248,8.19579335 C36.3848,6.42879335 34.7698,4.89979335 32.9268,3.65279335 C31.0628,2.39079335 28.9968,1.43879335 26.7858,0.82079335 C25.3638,0.42279335 23.5928,-0.0802066499 21.9568,0.0107933501 C20.2488,0.0957933501 18.6128,0.47279335 16.9468,0.88579335 C16.5368,0.98779335 16.1308,1.09279335 15.7218,1.20179335 C14.2828,1.58779335 13.0288,1.98079335 11.8878,2.40279335 C9.0038,3.46779335 6.7798,4.74679335 5.0858,6.31379335 C4.3838,6.96279335 3.7668,7.67179335 3.2488,8.42179335 C0.6938,12.1257934 0.2498,16.7807934 0.0338,20.8517934 C-0.5492,31.8327934 6.4228,40.0067934 17.0168,40.8147934 C16.7378,45.0887934 17.0418,49.5037934 17.4078,54.0257934 C17.7668,58.4677934 19.5458,60.1157934 24.2068,60.3217934 C29.8798,60.5747934 35.6698,60.5917934 41.2688,60.6067934 C44.0558,60.6157934 46.9388,60.6227934 49.7678,60.6607934 C50.5628,60.6717934 51.5008,60.7497934 52.4928,60.8327934 C53.7778,60.9397934 55.1568,61.0547934 56.5088,61.0547934 C59.6518,61.0547934 62.6478,60.4317934 63.9648,57.6387934 C64.9968,55.4487934 64.8158,52.1317934 64.6558,49.2047934 C64.5988,48.1667934 64.5458,47.1877934 64.5558,46.3677934" id="Fill-4" fill="#161637" mask="url(#mask-4)"></path>
                    </g>
                </g>
            </g>
        </g>
    </g>
</svg>