<svg height="32" viewBox="0 0 130 32" width="130" xmlns="http://www.w3.org/2000/svg"><g fill="none" fill-rule="evenodd"><path d="m31.8518519 0c6.7092369 0 12.1481481 5.59644063 12.1481481 12.5 0 6.9035594-5.4389112 12.5-12.1481481 12.5-3.1837951 0-6.0815289-1.2602475-8.2477456-3.3223848 1.3447113-1.7742319 2.3077692-3.8674694 2.7644148-6.1509304 1.0486547 2.0095925 3.1109414 3.3757542 5.4833308 3.3757542 3.4364384 0 6.2222222-2.8664696 6.2222222-6.402439 0-3.53596943-2.7857838-6.40243902-6.2222222-6.40243902-2.3723894 0-4.4346761 1.36616173-5.4843442 3.37562179-.4556322-2.28332856-1.4186901-4.37656604-2.7620486-6.14981576 2.1648639-2.0631195 5.0625977-3.32336701 8.2463928-3.32336701zm-19.7037038 0c6.709237 0 12.1481482 5.59644063 12.1481482 12.5 0 6.9035594-5.4389112 12.5-12.1481482 12.5-6.70923691 0-12.1481481-5.5964406-12.1481481-12.5 0-6.90355937 5.43891119-12.5 12.1481481-12.5zm0 6.09756098c-3.43643839 0-6.22222217 2.86646959-6.22222217 6.40243902 0 3.5359694 2.78578378 6.402439 6.22222217 6.402439 3.4364385 0 6.2222223-2.8664696 6.2222223-6.402439 0-3.53596943-2.7857838-6.40243902-6.2222223-6.40243902z" fill="#e73536" fill-rule="nonzero" transform="translate(86 4)"/><path d="m60.1515152 21h1.6969696v-4.1515152h4.1515152v-1.6969696h-4.1515152v-4.1515152h-1.6969696v4.1515152h-4.1515152v1.6969696h4.1515152z" fill="#b1bbc9" fill-rule="nonzero"/><path d="m35.9991249 14.0288106c-.0026879-.1217112-.1000148-.2182843-.2209076-.2182843h-4.1024179c0 7.6314236-6.1209033 13.8157032-13.6717676 13.8157032-7.5540522 0-13.67539303-6.1842796-13.67539303-13.8157032h-4.10548084c-.12089284 0-.2182197.0965731-.22134516.2174001l-.00181277.0072003c0 .0027159.00181277.0044844.00181277.0080846.12358073 9.9234087 8.15095283 17.9567887 18.00221903 17.9567887 9.8480783 0 17.8710748-8.0352117 17.9950931-17.9567887 0-.0036002.0008751-.0063161.0008751-.0080846 0 0-.0008751-.0036002-.0008751-.0063161" fill="#fb5d2e"/><path d="m18.0015307 0c-7.5496122 0-13.66819737 6.18331642-13.66819737 13.8105263h27.33333337c0-7.62720988-6.1182104-13.8105263-13.665136-13.8105263" fill="#16b4f2"/><path d="m31.6666667 13.8105263c0 7.6289597-6.1182458 13.8105263-13.6652922 13.8105263-7.5497329 0-13.66804117-6.1815666-13.66804117-13.8105263z" fill="#2c2c96"/></g></svg>