<svg height="36" viewBox="0 0 132 36" width="132" xmlns="http://www.w3.org/2000/svg"><g fill="none" fill-rule="evenodd"><path d="m0 0h132v36h-132z"/><path d="m46.6010929 20.1271318-.7868852 2.2139535h-.0655738c-.1311476-.4992248-.3715847-1.2589148-.7650273-2.1705427l-4.2185793-10.52713175h-4.1311475v16.77829455h2.7322404v-10.3534883c0-.6511628 0-1.3891473-.0218579-2.3007752-.0218579-.455814-.0655738-.8031008-.0874317-1.0635659h.0655738c.1311475.6511628.284153 1.1286821.3934426 1.4325581l5.0710382 12.2418605h1.9234973l5.0273224-12.3503876c.1092896-.2821706.2185793-.8465117.3278689-1.324031h.0655737c-.0655737 1.2372093-.1092896 2.344186-.1311475 3.0170542v10.6356589h2.9071038v-16.7565891h-3.9781421zm11.0601093-5.7953489h2.84153v12.0248062h-2.84153zm1.4426229-5.07906972c-.4808743 0-.8743169.17364341-1.2021858.47751938-.3278688.30387594-.5027322.69457364-.5027322 1.17209304 0 .4558139.1748634.8465116.5027322 1.1503876.3278689.3038759.7213115.4558139 1.2021858.4558139.4808744 0 .8961749-.1736434 1.2021858-.4558139.3278689-.303876.5027323-.6945737.5027323-1.1503876 0-.455814-.1748634-.8465116-.5027323-1.17209304-.284153-.30387597-.6994535-.47751938-1.2021858-.47751938m11.4754099 4.97054262c-.5245902-.1085271-1.0710383-.1736434-1.5956284-.1736434-1.2896175 0-2.4699454.2821705-3.453552.8465116-.9836065.5643411-1.7704918 1.3457365-2.273224 2.3224807-.5245902.9984496-.7868852 2.1488372-.7868852 3.4728682 0 1.1503876.262295 2.1705426.7650273 3.1038759.5027322.9116279 1.2021858 1.6496124 2.1420765 2.1488372.8961748.4992249 1.9453552.75969 3.125683.75969 1.3551913 0 2.5136612-.2821706 3.431694-.8031008l.021858-.0217054v-2.6046512l-.1092897.0868217c-.4153005.303876-.8961748.5643411-1.3770491.7162791-.5027323.1736434-.9617487.2604651-1.3551913.2604651-1.136612 0-2.0327869-.3255814-2.6666667-1.0418605-.6557377-.6945736-.9836065-1.6496124-.9836065-2.8434108 0-1.2372093.3278688-2.2139535 1.0054645-2.9302326.6775956-.716279 1.5737704-1.0852713 2.6666666-1.0852713.9180328 0 1.8579235.303876 2.7103825.9116279l.1092897.0868217v-2.7565891l-.021858-.0217055c-.3715847-.1519379-.7868852-.3255814-1.3551912-.4341085m9.3770492-.0868217c-.6994536 0-1.3551913.2170543-1.9234973.6728682-.4808743.3906977-.8087432.9550388-1.0928962 1.627907h-.0218579v-2.1054264h-2.8415301v12.0248062h2.8415301v-6.1426356c0-1.0418605.2185792-1.9100775.6994535-2.5395349.4808744-.6511628 1.0928962-.9767442 1.8360656-.9767442.2622951 0 .5245902.0651163.852459.1085272.306011.0868217.5245902.1736434.6775957.2821705l.1092896.0868217v-2.8217054l-.0655738-.0217055c-.1967213-.1302325-.5901639-.1953488-1.0710382-.1953488m7.7377049-.0651163c-1.9890711 0-3.5846995.5860465-4.6994536 1.7364341-1.136612 1.1503876-1.6830601 2.7348838-1.6830601 4.731783 0 1.8666667.568306 3.3860465 1.6612022 4.4930232 1.0928962 1.0852714 2.579235 1.6496124 4.4371585 1.6496124 1.9453552 0 3.4972677-.5860465 4.6120218-1.7581395 1.136612-1.172093 1.6830601-2.7348837 1.6830601-4.6666667 0-1.9100775-.5245901-3.4294573-1.5956284-4.5364341-1.0273224-1.1069767-2.5355191-1.6496124-4.4153005-1.6496124m2.273224 9.2465117c-.5245901.6728682-1.3551912.9984496-2.3825136.9984496-1.0273225 0-1.8579235-.3255814-2.4480875-1.0418605-.5901639-.6728682-.8743169-1.6496124-.8743169-2.8868217 0-1.2806202.3060109-2.2573643.8743169-2.951938.590164-.6945736 1.3989071-1.0418605 2.4262295-1.0418605 1.0054645 0 1.7923498.3255814 2.3606558.9984497.568306.6728682.8743169 1.6496124.8743169 2.9302325-.0437158 1.3023256-.284153 2.3224806-.8306011 2.9953489m10.0765029-3.9937985c-.896175-.3689922-1.464481-.6511628-1.7267761-.8899225-.2185792-.2170542-.3278689-.5209302-.3278689-.9116279 0-.3255814.1311476-.6511628.4590164-.868217.3278689-.2170543.6994536-.3255814 1.2459017-.3255814.4808739 0 .9836069.0868217 1.4644809.2170542.480874.1302326.918033.3255814 1.26776.5860465l.109289.0868218v-2.6480621l-.065574-.0217054c-.327868-.1302325-.765027-.2604651-1.289617-.3689922-.52459-.0868217-1.005465-.1302326-1.3989072-.1302326-1.3551913 0-2.4699454.3255814-3.3442623 1.0418605-.874317.6728682-1.2896175 1.5844961-1.2896175 2.648062 0 .5643411.0874317 1.0635659.284153 1.475969s.4808743.8031008.8743169 1.1286821c.3934427.303876.9617487.6511628 1.7486339.9767442.6557377.2821706 1.15847.4992248 1.4644809.6728682.3060109.1736435.5027323.3689923.6557373.5209303.10929.1736434.174864.3906977.174864.6728682 0 .8031008-.6120221 1.1937984-1.8579237 1.1937984-.4808743 0-.9836066-.0868217-1.5737705-.2821705s-1.136612-.4775194-1.5956284-.8031008l-.1092896-.0868217v2.7565892l.0655737.0217054c.4153006.1953488.9180328.3255814 1.5300547.4775194.6120218.1085271 1.1584699.1953488 1.6393442.1953488 1.4644809 0 2.6666666-.3255814 3.5191256-1.0418604.874317-.6945737 1.333333-1.5844962 1.333333-2.7348838 0-.8031007-.218579-1.5193798-.699453-2.0620155-.63388-.5209302-1.420765-1.0635659-2.557377-1.4976744m10.754098-5.2527132c-1.989071 0-3.584699.5860465-4.699453 1.7364341s-1.68306 2.7348838-1.68306 4.731783c0 1.8666667.568306 3.3860465 1.661202 4.4930232 1.092896 1.0852714 2.579235 1.6496124 4.437158 1.6496124 1.945355 0 3.497268-.5860465 4.612022-1.7581395 1.136612-1.172093 1.68306-2.7348837 1.68306-4.6666667 0-1.9100775-.52459-3.4294573-1.595628-4.5364341-1.027323-1.1069767-2.535519-1.6496124-4.415301-1.6496124m2.251366 9.2465117c-.52459.6728682-1.355191.9984496-2.382513.9984496-1.049181 0-1.857924-.3255814-2.448088-1.0418605-.590164-.6728682-.874317-1.6496124-.874317-2.8868217 0-1.2806202.306011-2.2573643.874317-2.951938.590164-.6945736 1.398907-1.0418605 2.42623-1.0418605.983606 0 1.792349.3255814 2.360655.9984497.568306.6728682.874317 1.6496124.874317 2.9302325 0 1.3023256-.284153 2.3224806-.830601 2.9953489m18.95082-6.6635659v-2.3224807h-2.863388v-3.5596899l-.087432.0217054-2.710382.8031008-.065574.0217055v2.7131782h-4.284153v-1.5193798c0-.6945736.174863-1.2372093.480874-1.5844961s.765028-.5209303 1.333334-.5209303c.393442 0 .808743.0868217 1.267759.2821706l.10929.0651163v-2.45271321l-.065574-.02170543c-.393443-.13023256-.918033-.21705426-1.595628-.21705426-.852459 0-1.595629.19534883-2.273224.52093023-.677596.36899225-1.180328.86821705-1.551913 1.54108527-.371585.6511628-.568306 1.3891473-.568306 2.2356589v1.6713178h-1.989071v2.3007752h1.989071v9.724031h2.863388v-9.7023255h4.284153v6.1860465c0 2.5395349 1.202186 3.820155 3.606557 3.820155.393443 0 .808744-.0651163 1.202186-.1302325.415301-.0868217.721312-.1953489.896175-.2821706l.021858-.0217054v-2.3224806l-.10929.0868217c-.174863.1085271-.327868.1953488-.590164.2604651-.218579.0651163-.4153.0868217-.568306.0868217-.568306 0-.961748-.1302326-1.245901-.455814-.262295-.3038759-.393443-.8031007-.393443-1.5410852v-5.6868217zm-132-12.6542636h13.3989071v13.3054264h-13.3989071zm14.7978142 0h13.3989071v13.3054264h-13.3989071zm-14.7978142 14.6945736h13.3989071v13.3054264h-13.3989071zm14.7978142 0h13.3989071v13.3054264h-13.3989071z" fill="#161637" fill-rule="nonzero"/></g></svg>