<svg height="36" viewBox="0 0 87 36" width="87" xmlns="http://www.w3.org/2000/svg"><g fill="none" fill-rule="evenodd"><path d="m0 0h87v36h-87z"/><path d="m11.9627549 27.5174856c-1.3087383.2248123-2.64050099.2922144-4.0181426.4717318l-4.20199804-12.0389677v12.5556619c-1.30873828.1347212-2.50269434.3144048-3.74261426.4940884v-23h3.49019531l4.77582422 13.0499996v-13.0499996h3.69673537zm7.2328096-13.0946297c1.4236904 0 3.6049775-.0674021 4.9137158-.0674021v3.5936721c-1.6303155 0-3.5359893 0-4.9137158.0674021v5.345795c2.1584326-.1347211 4.3167802-.3145709 6.4979824-.3819731v3.4587847l-10.1718633.7863028v-21.2254374h10.1718633v3.59375519h-6.4979824zm20.159871-4.8290176h-3.8115175v16.531224c-1.23992 0-2.4798399 0-3.673626.0447963v-16.5760203h-3.8115176v-3.5938383h11.2968311zm5.9698653 4.582015h5.028583v3.5936721h-5.028583v8.1534137h-3.6051475v-19.9229391h10.263961v3.59375519h-6.6588135zm12.6286787 8.6024565c2.0895293.0447962 4.2018281.2022895 6.2454785.3144047v3.5488759c-3.2834004-.2022895-6.5668857-.4041635-9.9191894-.4717318v-20.1698586h3.6737109zm9.3451934 4.1103663c1.1710166.0674852 2.4109365.1348874 3.6048925.2694423v-21.1581184h-3.6048925zm19.7008271-20.8886761-4.6612119 10.9385095 4.6612119 12.0614905c-1.3778115-.1796836-2.7554531-.4267693-4.1331797-.6514154l-2.640416-6.6482934-2.68621 6.1094088c-1.3320175-.2248123-2.6178164-.2922144-3.9493242-.471898l4.7299453-10.5341799-4.2709013-10.8036221h3.9491543l2.4109365 6.0420066 2.5717676-6.0420066z" fill="#161637" fill-rule="nonzero"/></g></svg>