<svg height="36" viewBox="0 0 119 36" width="119" xmlns="http://www.w3.org/2000/svg"><g fill="none" fill-rule="evenodd"><path d="m0 0h119v36h-119z"/><path d="m17.8455143 0c-9.85559619 0-17.8455143 8.05901494-17.8455143 18.0001075 0 9.9415224 7.98991811 17.9998925 17.8455143 17.9998925 9.8566616 0 17.8457273-8.0583701 17.8457273-17.9998925 0-9.94044771-7.9890657-17.99924771-17.8459404-17.99924771zm8.1838378 25.9613214c-.3196479.5287701-1.0058253.6964289-1.5300478.3718587-4.1899443-2.5815158-9.4645603-3.1661721-15.67638385-1.7346238-.5985939.1375662-1.19526992-.2407409-1.33165301-.8447425-.13702239-.6040016.23653942-1.2058537.83662502-1.3434199 6.79784464-1.5665351 12.62886104-.8920308 17.33279904 2.0076067.5242226.3245703.6904394 1.0145508.3686606 1.5433208zm2.1842604-4.9012257c-.4027563.6603177-1.2594126.8688165-1.9136252.4625663-4.796849-2.9740093-12.1089006-3.8353027-17.78265021-2.0980995-.73582939.2241899-1.51299991-.1940973-1.73632722-.9350203-.22162252-.7422126.19328041-1.5246204.92783121-1.7503149 6.48096712-1.9835327 14.53801122-1.0227188 20.04660952 2.3917173.6542126.4062502.8609182 1.2703379.4581619 1.929366zm.1875268-5.1037061c-5.7515307-3.4458184-15.2408104-3.7626505-20.73214765-2.0815486-.88180192.2697588-1.8143213-.2323579-2.08154692-1.1218093-.26722561-.8898814.23014647-1.8298455 1.11258768-2.100249 6.30366909-1.93022578 16.78279169-1.55729241 23.40461689 2.4078384.7948577.4748183 1.054838 1.5080695.5838901 2.3070282-.4688169.8000334-1.495952 1.0637736-2.2865477.5887403zm20.1506016.6603178c-3.0814055-.7411379-3.6290688-1.2613101-3.6290688-2.3543166 0-1.0326063.9632056-1.7275305 2.397359-1.7275305 1.3894027 0 2.7660195.5276953 4.2108279 1.6140384.0426197.0328869.0980253.0459987.1513.0374008.0554056-.008168.1022873-.0380456.1342521-.0829696l1.504476-2.1391544c.0617986-.0881284.0447507-.2095735-.0383578-.276852-1.7197055-1.3913532-3.6546406-2.06779197-5.9177475-2.06779197-3.3264688 0-5.6513743 2.01384017-5.6513743 4.89520727 0 3.0898658 2.0052576 4.183947 5.4702405 5.0284745 2.9471533.6850367 3.445804 1.2589457 3.445804 2.2846737 0 1.1370706-1.0058253 1.8442469-2.6253745 1.8442469-1.798552 0-3.2668012-.6125995-4.9076602-2.0441478-.0404888-.036541-.0958944-.0515873-.1470381-.0494378-.0554056.0042989-.1044183.0300926-.138514.0709325l-1.6877408 2.0248026c-.0703225.0859788-.0617986.2106482.0191789.2837302 1.9093633 1.7195776 4.2577096 2.6266547 6.7935827 2.6266547 3.5843181 0 5.9007195-1.9753647 5.9007195-5.0340632.0063731-2.5808709-1.5258057-4.0102697-5.2784717-4.9311034zm13.3953766-3.0651469c-1.5534886 0-2.8278181.6173283-3.8805251 1.8822925v-1.4238102c0-.1124174-.0895014-.2039849-.2003127-.2039849h-2.7596265c-.1108113 0-.2003127.0915675-.2003127.2039849v15.820328c0 .1117726.0895014.2041999.2003127.2041999h2.7596265c.1108113 0 .2003127-.0924273.2003127-.2041999v-4.9932231c1.052707 1.1886579 2.3270365 1.7711648 3.8805251 1.7711648 2.8874858 0 5.8112029-2.2418992 5.8112029-6.5277312.0042573-4.2866918-2.9194552-6.5292358-5.8090719-6.5292358zm2.6019337 6.5290208c0 2.181499-1.3318661 3.7054746-3.2412294 3.7054746-1.8859224 0-3.3094209-1.5927587-3.3094209-3.7054746 0-2.1129309 1.4234985-3.7052596 3.3094209-3.7052596 1.8773985-.000215 3.2412294 1.5577223 3.2412294 3.7050447zm10.6996796-6.5290208c-3.7185702 0-6.6316278 2.8880304-6.6316278 6.5756644 0 3.6480836 2.8938787 6.5047318 6.5868771 6.5047318 3.7313561 0 6.6529376-2.8781429 6.6529376-6.5513754 0-3.6607656-2.9024026-6.5285909-6.6081869-6.5285909zm0 10.2559901c-1.9775548 0-3.4692449-1.603506-3.4692449-3.728044 0-2.1342107 1.4405464-3.6829052 3.4244942-3.6829052 1.9903407 0 3.4905547 1.6028612 3.4905547 3.7295487 0 2.1337808-1.4490703 3.6814005-3.445804 3.6814005zm14.54824-10.0014927h-3.0366548v-3.1309207c0-.1122025-.0895014-.20377-.2003126-.20377h-2.7596266c-.1108113 0-.2024437.0915675-.2024437.20377v3.1309207h-1.3254731c-.1108113 0-.2003127.0915675-.2003127.2039849v2.3917174c0 .1122024.0895014.2039849.2003127.2039849h1.3254731v6.1894043c0 2.4998358 1.2338408 3.7680242 3.6695575 3.7680242.9887775 0 1.809207-.2063493 2.5827548-.6491405.0639296-.0343916.1022873-.1031747.1022873-.1762567v-2.2784402c0-.0687831-.0362267-.1354168-.0958943-.1719578-.0596676-.0386905-.1342521-.0408399-.1960507-.0085979-.5306155.268684-1.044183.3933534-1.6195492.3933534-.8843591 0-1.2807225-.4062502-1.2807225-1.3133273v-5.7519868h3.0366548c.1108112 0 .2003126-.0915675.2003126-.2039849v-2.3915024c.004262-.1124174-.0852394-.2039849-.1981816-.2039849zm10.5782132.012252v-.3845405c0-1.1312671.430459-1.6357481 1.393665-1.6357481.575366 0 1.03779.1152117 1.55562.2893189.063929.020205.12999.0101025.181133-.028373.053275-.0384756.083109-.1001654.083109-.1655094v-2.34507378c0-.08963298-.055406-.1689485-.142776-.195387-.545533-.1640047-1.244496-.33230835-2.292941-.33230835-2.546528 0-3.895442 1.44745433-3.895442 4.18437693v.5889553h-1.3254731c-.1108113 0-.2024437.0915675-.2024437.2037699v2.4039694c0 .1122024.0916324.2039849.2024437.2039849h1.3254731v9.5447299c0 .113922.0916324.2041998.2024437.2041998h2.7574953c.112943 0 .202444-.0902778.202444-.2041998v-9.5440851h2.576362l3.946585 9.5440851c-.447507 1.0016539-.888621 1.2015548-1.489559 1.2015548-.485864 0-.999432-.1461641-1.521523-.4363428-.049013-.0257937-.108681-.0300926-.159824-.0150463-.053275.0193452-.098026.0580357-.119336.109623l-.935502 2.0699415c-.044751.0988757-.006393.2127977.08737.264385.975992.533069 1.856089.760913 2.945022.760913 2.037223 0 3.164514-.9586644 4.155423-3.5337317l4.786194-12.47489c.025572-.0627646.017048-.1336972-.02131-.1893685-.036227-.0552414-.098025-.0885582-.164086-.0885582h-2.872569c-.08737 0-.164086.0552414-.191789.1367064l-2.942891 8.4762274-3.22205-8.4818161c-.029834-.0788856-.104419-.1311177-.187527-.1311177h-4.713741zm-6.1329769-.012252h-2.7596266c-.1108112 0-.2024436.0915675-.2024436.2039849v12.1404322c0 .113922.0916324.2041998.2024436.2041998h2.7596266c.1108113 0 .2024437-.0902778.2024437-.2041998v-12.1395724c0-.1124174-.0895014-.2039849-.2024437-.2039849zm-1.3638309-5.52822672c-1.0931957 0-1.9796858.89246073-1.9796858 1.99492482 0 1.103109.8864901 1.9966445 1.9796858 1.9966445s1.9775548-.8935355 1.9775548-1.9966445c0-1.10224914-.8864901-1.99492482-1.9775548-1.99492482zm24.1696408 9.43188262c-1.091065 0-1.941328-.8845077-1.941328-1.9585988s.860918-1.9687013 1.951983-1.9687013 1.941328.8842928 1.941328 1.9575241c0 1.0740911-.860918 1.969776-1.951983 1.969776zm.010655-3.7325579c-.99517 0-1.747408.7974541-1.747408 1.7739591 0 .9760752.747976 1.7627819 1.736753 1.7627819.99517 0 1.747408-.7968092 1.747408-1.7739591 0-.9760752-.747976-1.7627819-1.736753-1.7627819zm.430459 1.9641874.549794.7755295h-.464554l-.494389-.7114752h-.424066v.7114752h-.38784v-2.055755h.9078c.47521 0 .786334.244395.786334.6558039.002131.3370372-.191789.5429566-.470948.6244216zm-.328172-.9274971h-.505043v.6502152h.505043c.251457 0 .402757-.1244544.402757-.32543 0-.2115081-.1513-.3247852-.402757-.3247852z" fill="#161637" fill-rule="nonzero"/></g></svg>