<svg height="56" viewBox="0 0 58 56" width="58" xmlns="http://www.w3.org/2000/svg"><path d="m53.219119 26.3109073c0-.7782768 1.5946666-1.1640765 2.3358473-.8116633.7359872.3494455 1.4526844 1.3525249 1.4526844 2.1842201v26.8442433c0 .3524132-.0808696.9555963-.5757319.9555963h-54.02828711c-1.05872354 0-2.0981571-1.3057838-2.0981571-2.3274112v-26.8449852c0-.7782768.479282-1.1640765 1.22046267-.8116633.73598721.3494455 2.56881097 1.3525249 2.56881097 2.1842201l-.19090208 3.5473051c-.37995963 4.7878974-.56585706 8.1340512-.5576923 10.0384616.03083999 7.1933519.83889115 10.8322536.83889115 10.9310654h3.37198102l29.25066628.2227807h16.7307692l-.0004073-14.2372405c-.0073318-2.7009643-.1136436-6.659274-.3189352-11.8749291zm-25.8099121-25.72336006c.5722705-.78565954 1.6214331-.76868541 2.2187607-.038798l8.1403058 9.94360456c.6312758.7711103.6506748 2.0659936.0501141 2.8573112-.5795452.7622191-1.5206693.216845-2.1260798-.5227419-1.8365109-2.2435303-3.7154777-4.22945608-5.5794303-6.3064818l-.0003389.9997431c-.3698975 6.5722257-.5548462 11.501395-.5548462 14.7875079 0 2.3665405.1849487 5.9163512.5548462 10.6494322 0 .8802296-.5019491 2.0296204-1.5333294 2.0474029-1.0055149.0177824-1.604459-1.1057431-1.604459-1.9924391v-3.5952815l-.2055193-7.1091145.171479-15.23901576c-1.7312001 2.27272005-3.4641488 4.50046966-5.1907098 6.87363116-.5698457.7832347-1.6041024 1.1136611-2.2046631.3781157-.6409754-.7848513-.6393588-2.0474029-.0501141-2.8573112z" fill="#161637" fill-rule="evenodd"/></svg>