<svg height="36" viewBox="0 0 115 36" width="115" xmlns="http://www.w3.org/2000/svg"><g fill="none" fill-rule="evenodd"><path d="m0 0h115v36h-115z"/><path d="m6.84174442 9.78997714 3.98386218 10.22674156 4.0355764-10.22674156h6.6615577l-10.0308309 24.21002286h-6.70377488l2.74577838-6.415274-7.5339133-17.79474886zm21.62059688-.40711909c3.2768502 0 4.7610652 2.01104445 4.7610652 2.01104445v-1.60381851h5.9673155v17.64200441h-5.9673155v-1.6801912s-1.3303287 2.156907-4.8585867 2.156907c-4.7298098 0-8.2927003-4.1097927-8.2927003-9.293548 0-4.6065797 3.2496979-9.23239815 8.3902218-9.23239815zm1.2692783 5.66944635c-2.2281719 0-3.6044687 1.6371018-3.6044687 3.6602042 0 1.9948752 1.7110522 3.5474329 3.6044687 3.5474329 2.2845455 0 3.5958541-1.79559 3.5958541-3.6253023 0-1.6991924-1.2239753-3.5823348-3.5958541-3.5823348zm11.5142158 12.3796771v-25.4319815h6.2414466v9.4549854s1.4824982-2.0699446 4.5873808-2.0699446c3.7979208 0 6.023085 2.8393189 6.023085 6.8965826v11.1503581h-6.1957828v-9.6229115c0-1.3730673-.6518337-2.6995017-2.1283555-2.6995017-1.5030177 0-2.2863275 1.3465356-2.2863275 2.6995017v9.6229115zm27.4933596-18.04703534c-5.8868626 0-9.392206 4.49149944-9.392206 9.30370364 0 5.4763686 4.2441758 9.2201544 9.414499 9.2201544 5.0113107 0 9.3963709-3.573888 9.3963709-9.1282784 0-6.0775099-4.5912917-9.39557964-9.4186639-9.39557964zm.0562128 5.71927624c2.0794505 0 3.5182454 1.7378059 3.5182454 3.5909798 0 1.5806168-1.3406963 3.5301427-3.5182454 3.5301427-1.9952844 0-3.4926779-1.605927-3.4926779-3.5474329 0-1.8702967 1.2449339-3.5736896 3.4926779-3.5736896zm19.7604012-5.71927624c-5.8868575 0-9.3922048 4.49149944-9.3922048 9.30370364 0 5.4763686 4.2441776 9.2201544 9.4144999 9.2201544 5.0113111 0 9.3963713-3.573888 9.3963713-9.1282784 0-6.0775099-4.5912861-9.39557964-9.4186664-9.39557964zm.0562127 5.71927624c2.0794457 0 3.5182467 1.7378059 3.5182467 3.5909798 0 1.5806168-1.3407019 3.5301427-3.5182467 3.5301427-1.9952888 0-3.4926783-1.605927-3.4926783-3.5474329 0-1.8702967 1.2449334-3.5736896 3.4926783-3.5736896zm14.2874053 12.7023088c2.288975 0 4.144556-1.8618484 4.144556-4.1585547 0-2.2967064-1.855581-4.1585547-4.144556-4.1585547-2.288976 0-4.1445568 1.8618483-4.1445568 4.1585547 0 2.2967063 1.8555808 4.1585547 4.1445568 4.1585547zm5.506421-9.8447167h-7.461282l6.622011-15.9618145h7.433423z" fill="#161637" fill-rule="nonzero"/></g></svg>